<svg id="Layer_1" data-name="Layer 1" xmlns="http://www.w3.org/2000/svg" viewBox="0 0 1417.32 1417.32"><defs><style>.cls-1{fill:#12dedb;stroke:#000;stroke-miterlimit:10;stroke-width:4px;}</style></defs><path class="cls-1" d="M969.15,715.28l-7.45-69.82,30-28.89-37.22-76-41.2,5.94-50.58-48.7L867,456.38l-77.39-34.32-27.74,31-70-4.79-23.25-34.52-81.35,23.45-1.3,41.6-56.75,41.36-40-11.5L442,579l25.74,32.7-16.89,68.16-38,16.9,9,84.19,40.75,8.5,30.87,63.07-18.27,37.39,61,58.72,36.68-19.67L637,957.37l10,40.39,84.47,5.78,15.45-38.64,67.47-19.46,33.65,24.49,68.42-49.86-13-39.54,39.17-58.27,41.52-2.88,20.36-82.17ZM708.66,887.72C608,887.72,526.4,807.55,526.4,708.66S608,529.6,708.66,529.6s182.27,80.17,182.27,179.06S809.32,887.72,708.66,887.72Z"/></svg>