<svg id="Layer_1" data-name="Layer 1" xmlns="http://www.w3.org/2000/svg" viewBox="0 0 1417.32 1417.32"><defs><style>.cls-1,.cls-6{fill:#fff;}.cls-2{fill:#5e5e5e;}.cls-3{fill:#fcfcfc;}.cls-4{fill:none;}.cls-5{fill:#790506;}.cls-6{font-size:42px;font-family:TimesNewRomanPS-BoldMT, Times New Roman;font-weight:700;}.cls-7{fill:#fef157;stroke:#020202;stroke-miterlimit:10;stroke-width:4px;}</style></defs><ellipse class="cls-1" cx="686.08" cy="708.66" rx="182.26" ry="179.06"/><path class="cls-2" d="M560.33,580.39c-71.48,70.88-73,185.26-3.34,255.48s184,69.68,255.5-1.2Z"/><rect class="cls-2" x="680.71" y="695.71" width="11.31" height="20.16" transform="translate(700.1 -278.62) rotate(45)"/><circle class="cls-2" cx="702.36" cy="691.04" r="13.29"/><path class="cls-3" d="M556.73,595.29l20.06,21.59S521.17,670,517.62,712.12C517.62,712.12,509.49,661.58,556.73,595.29Z"/><ellipse class="cls-4" cx="686.08" cy="708.2" rx="182.26" ry="179.06"/><path class="cls-5" d="M705,630.63a55,55,0,0,1,24.06,5.5c11.38,5.59,20.26,13.84,26,25.37,5,10,7.3,20.34,6.08,31.44a34.8,34.8,0,0,1-.92,5.27c-.2.75-.92,1.83-1.52,1.92a22.27,22.27,0,0,1-5.71.07c-1.44-.16-1.38-1.48-1.15-2.62,3.95-19.89-2.21-36.14-18-48.64-11-8.75-23.76-11.42-37.57-9.38a12.86,12.86,0,0,0-1.6.39c-2.59.72-3.51,0-3.47-2.79.06-5.1-.34-4.88,5.16-5.85,1.56-.27,3.12-.52,4.69-.65C702.36,630.55,703.68,630.63,705,630.63Z"/><path class="cls-5" d="M746.56,687.88c-.48,3.3-.94,6.61-1.44,9.91-.3,2.05-1.53,3-3.58,2.87-.82,0-1.64,0-2.47,0-2.6,0-3.28-.74-2.5-3.24a32.2,32.2,0,0,0,.3-17.47,34.2,34.2,0,0,0-34.7-25.79,53.52,53.52,0,0,0-7.9,1.29c-2.11.39-2.6.06-2.69-2.08a8.83,8.83,0,0,0,0-1c-.68-5.06.75-5.63,5.23-5.91,4.63-.28,9.38-.7,13.92,0a40.38,40.38,0,0,1,28.45,18.45A44.11,44.11,0,0,1,746.56,687.88Z"/><path class="cls-5" d="M702.65,660.08c9.5.12,17.37,3.53,23.37,11.14,6.55,8.31,7.17,17.45,4.39,27.2A3.16,3.16,0,0,1,726.8,701c-1.43-.12-2.89.1-4.32,0-1.78-.13-2.11-.88-1.23-2.43,6.85-12-.62-27.5-14.36-30a21.83,21.83,0,0,0-12.81,1.76c-1.74.76-2.14.51-2.29-1.43,0-.14,0-.28,0-.41-.21-6.52.79-7.64,7.38-8.24C700.32,660.2,701.49,660.15,702.65,660.08Z"/><text class="cls-6" transform="translate(835.91 842.69) rotate(135.78)">H</text><text class="cls-6" transform="translate(812.77 864.6) rotate(142.6)">I</text><text class="cls-6" transform="translate(800.99 874.67) rotate(150.4)">M</text><text class="cls-6" transform="translate(767.23 893.31) rotate(159.57)">P</text><text class="cls-6" transform="translate(744.11 902.16) rotate(167.45)">U</text><text class="cls-6" transform="translate(715.48 908.6) rotate(175.93)">N</text><text class="cls-6" transform="translate(686.2 910.76) rotate(-175.72)">A</text><text class="cls-6" transform="translate(656.92 908.65) rotate(-167.24)">N</text><text class="cls-6" transform="matrix(-0.95, -0.32, 0.32, -0.95, 628.14, 901.65)"> </text><text class="cls-6" transform="translate(618.59 899.45) rotate(-154.44)">M</text><text class="cls-6" transform="matrix(-0.82, -0.58, 0.58, -0.82, 584, 882.57)">A</text><text class="cls-6" transform="matrix(-0.72, -0.7, 0.7, -0.72, 559.97, 865.73)">H</text><text class="cls-6" transform="matrix(-0.6, -0.8, 0.8, -0.6, 537.25, 843.7)">A</text><text class="cls-6" transform="translate(519.61 820.13) rotate(-119.66)">S</text><text class="cls-6" transform="translate(508.5 800.34) rotate(-114.09)">I</text><text class="cls-6" transform="translate(501.92 786.11) rotate(-108.51)">S</text><text class="cls-6" transform="translate(494.03 765.15) rotate(-99.32)">W</text><text class="cls-6" transform="matrix(-0.02, -1, 1, -0.02, 488.26, 729.24)">A</text><text class="cls-6" transform="translate(488.2 701.88) rotate(-85.58)"> </text><text class="cls-6" transform="translate(488.86 691.85) rotate(-81.84)">I</text><text class="cls-6" transform="matrix(0.25, -0.97, 0.97, 0.25, 490.63, 676.36)">N</text><text class="cls-6" transform="translate(498.19 647.94) rotate(-67.41)">F</text><text class="cls-6" transform="translate(507.4 624.98) rotate(-59.23)">O</text><text class="cls-6" transform="translate(523.61 597.8) rotate(-50.46)">R</text><text class="cls-6" transform="translate(541.86 574.92) rotate(-40.74)">M</text><text class="cls-6" transform="translate(571.23 550.01) rotate(-30.99)">A</text><text class="cls-6" transform="translate(593.73 536.29) rotate(-23.69)">T</text><text class="cls-6" transform="translate(618.8 525.59) rotate(-17.45)">I</text><text class="cls-6" transform="translate(633.49 520.4) rotate(-10.56)">K</text><text class="cls-6" transform="translate(664.61 514.62) rotate(-1.79)">A</text><text class="cls-6" transform="translate(692.02 514.07) rotate(3.19)"> </text><text class="cls-6" transform="matrix(0.99, 0.15, -0.15, 0.99, 701.87, 514.09)">U</text><text class="cls-6" transform="translate(730.9 518.55) rotate(17.4)">N</text><text class="cls-6" transform="matrix(0.91, 0.42, -0.42, 0.91, 758.91, 527.5)">S</text><text class="cls-6" transform="matrix(0.86, 0.51, -0.51, 0.86, 779.43, 537.2)">I</text><text class="cls-6" transform="matrix(0.8, 0.61, -0.61, 0.8, 793.13, 544.65)">K</text><text class="cls-6" transform="translate(818.3 563.87) rotate(46.1)">A</text><rect class="cls-7" x="843.33" y="603.9" width="58.67" height="209.52" rx="0.76"/><path class="cls-7" d="M960.67,668.67v7h65.11a1.32,1.32,0,0,1,1.33,1.33v59.43a1.33,1.33,0,0,1-1.33,1.33H960.67v74.88a.76.76,0,0,1-.76.76H902.76a.76.76,0,0,1-.76-.76v-208a.77.77,0,0,1,.76-.77h123a1.33,1.33,0,0,1,1.33,1.34v62.09a1.33,1.33,0,0,1-1.33,1.34Z"/></svg>