<svg width="582" height="482" viewBox="0 0 582 482" fill="none" xmlns="http://www.w3.org/2000/svg">
<g clip-path="url(#clip0_793_571)">
<rect x="58.3203" y="58.2654" width="364.52" height="364.52" rx="182.26" fill="white"/>
<path d="M250.094 237.529L242.097 229.531L227.841 243.787L235.839 251.784L250.094 237.529Z" fill="#5E5E5E"/>
<path d="M254.964 239.205C262.304 239.205 268.254 233.255 268.254 225.915C268.254 218.575 262.304 212.625 254.964 212.625C247.624 212.625 241.674 218.575 241.674 225.915C241.674 233.255 247.624 239.205 254.964 239.205Z" fill="#5E5E5E"/>
<path fill-rule="evenodd" clip-rule="evenodd" d="M364.604 378.611C291.746 451.082 173.935 450.964 101.225 378.254C28.5155 305.545 28.3966 187.733 100.868 114.875L364.604 378.611Z" fill="#5E5E5E"/>
<path d="M109.333 130.165L129.393 151.755C129.393 151.755 73.7735 204.875 70.2235 246.995C70.2235 246.995 62.0935 196.455 109.333 130.165Z" fill="#FCFCFC"/>
<path d="M257.604 165.505C265.937 165.492 274.164 167.373 281.664 171.005C293.044 176.595 301.924 184.845 307.664 196.375C312.664 206.375 314.964 216.715 313.744 227.815C313.573 229.593 313.265 231.355 312.824 233.085C312.624 233.835 311.904 234.915 311.304 235.005C309.412 235.274 307.492 235.297 305.594 235.075C304.154 234.915 304.214 233.595 304.444 232.455C308.394 212.565 302.234 196.315 286.444 183.815C275.444 175.065 262.684 172.395 248.874 174.435C248.333 174.531 247.798 174.661 247.274 174.825C244.684 175.545 243.764 174.825 243.804 172.035C243.864 166.935 243.464 167.155 248.964 166.185C250.524 165.915 252.084 165.665 253.654 165.535C254.964 165.425 256.284 165.505 257.604 165.505Z" fill="#790506"/>
<path d="M299.163 222.755C298.683 226.055 298.223 229.365 297.723 232.665C297.423 234.715 296.193 235.665 294.143 235.535C293.323 235.535 292.503 235.535 291.673 235.535C289.073 235.535 288.393 234.795 289.173 232.295C290.881 226.611 290.985 220.565 289.473 214.825C287.544 207.188 283.038 200.451 276.715 195.752C270.393 191.053 262.642 188.68 254.773 189.035C252.111 189.267 249.471 189.699 246.873 190.325C244.763 190.715 244.273 190.385 244.183 188.245C244.202 187.912 244.202 187.578 244.183 187.245C243.503 182.185 244.933 181.615 249.413 181.335C254.043 181.055 258.793 180.635 263.333 181.335C269.129 182.164 274.676 184.243 279.589 187.429C284.501 190.615 288.662 194.831 291.783 199.785C296.33 206.607 298.886 214.562 299.163 222.755Z" fill="#790506"/>
<path d="M255.253 194.955C264.753 195.075 272.623 198.485 278.623 206.095C285.173 214.405 285.793 223.545 283.013 233.295C282.871 234.113 282.413 234.843 281.737 235.326C281.062 235.808 280.223 236.006 279.403 235.875C277.973 235.755 276.513 235.975 275.083 235.875C273.303 235.745 272.973 234.995 273.853 233.445C280.703 221.445 273.233 205.945 259.493 203.445C255.143 202.725 250.677 203.339 246.683 205.205C244.943 205.965 244.543 205.715 244.393 203.775C244.393 203.635 244.393 203.495 244.393 203.365C244.183 196.845 245.183 195.725 251.773 195.125C252.923 195.075 254.093 195.025 255.253 194.955Z" fill="#790506"/>
</g>
<rect x="56.3203" y="56.2654" width="368.52" height="368.52" rx="184.26" stroke="black" stroke-width="4"/>
<path d="M384.297 382.006L393.417 373.131L394.53 374.275C394.365 374.787 394.139 375.339 393.854 375.929C393.549 376.538 393.235 377.079 392.911 377.55L409.49 394.586C410.05 394.198 410.629 393.869 411.226 393.6C411.824 393.331 412.351 393.15 412.808 393.057L413.921 394.201L404.801 403.076L403.688 401.932C403.793 401.439 403.959 400.926 404.184 400.395C404.389 399.883 404.653 399.411 404.975 398.98L397.887 391.696L389.91 399.458L396.999 406.742C397.518 406.393 398.037 406.123 398.554 405.932C399.052 405.76 399.529 405.628 399.985 405.535L401.098 406.679L391.978 415.554L390.865 414.411C390.991 413.858 391.207 413.296 391.512 412.726C391.816 412.156 392.14 411.626 392.484 411.136L375.905 394.099C375.365 394.468 374.807 394.777 374.229 395.027C373.631 395.296 373.084 395.496 372.587 395.628L371.474 394.484L380.594 385.609L381.707 386.753C381.582 387.226 381.417 387.719 381.212 388.231C381.007 388.743 380.743 389.235 380.42 389.705L388.006 397.501L395.983 389.739L388.396 381.943C387.917 382.254 387.438 382.504 386.96 382.696C386.483 382.887 385.966 383.039 385.41 383.15L384.297 382.006Z" fill="white"/>
<path d="M359.588 404.202L369.998 396.243L370.968 397.511C370.452 398.681 369.798 399.692 369.005 400.545L383.443 419.43C383.939 419.157 384.5 418.922 385.125 418.726C385.751 418.529 386.337 418.398 386.886 418.331L387.855 419.599L377.445 427.558L376.476 426.29C376.689 425.739 376.972 425.188 377.326 424.636C377.674 424.123 378.045 423.663 378.438 423.256L364 404.372C363.487 404.623 362.938 404.849 362.351 405.05C361.743 405.269 361.145 405.409 360.558 405.47L359.588 404.202Z" fill="white"/>
<path d="M325.126 424.054L336.046 417.851L336.834 419.239C336.485 419.759 336.128 420.236 335.762 420.669C335.397 421.102 334.98 421.532 334.514 421.958L343.186 437.222L345.43 441.599L345.722 441.433L344.708 436.841L341.487 414.76L343.167 413.806L360.364 427.753L364.106 431.279L364.435 431.092L361.764 426.475L353.258 411.503C352.74 411.668 352.139 411.8 351.455 411.899C350.77 411.998 350.108 412.052 349.469 412.061L348.681 410.673L357.592 405.611L358.38 406.999C358.101 407.415 357.758 407.916 357.35 408.502C356.918 409.102 356.474 409.595 356.018 409.983L367.656 430.47C368.198 430.291 368.798 430.128 369.455 429.98C370.087 429.846 370.686 429.795 371.252 429.828L372.041 431.216L362.144 436.838L348.113 425.149L345.062 422.245L345.026 422.265L345.963 426.467L348.668 444.493L339.612 449.638L338.824 448.25C339.099 447.772 339.425 447.297 339.801 446.825C340.167 446.392 340.566 445.989 340.997 445.615L329.235 424.908C328.668 425.101 328.098 425.232 327.525 425.3C326.927 425.382 326.391 425.429 325.915 425.442L325.126 424.054Z" fill="white"/>
<path d="M314.554 431.522C313.807 431.681 313.053 431.782 312.293 431.826C311.516 431.907 310.803 431.918 310.154 431.861L309.597 430.365L322.703 425.483L323.26 426.979C322.869 427.453 322.433 427.885 321.95 428.274C321.441 428.673 320.944 429.022 320.458 429.323L328.756 451.599C329.399 451.48 330.03 451.409 330.649 451.387C331.278 451.392 331.865 451.442 332.409 451.539L332.966 453.034L328.007 454.881C326.957 455.272 325.783 455.77 324.484 456.373C323.158 456.986 321.932 457.503 320.803 457.923C319.413 458.441 318.008 458.8 316.588 459C315.152 459.236 313.8 459.217 312.533 458.942C311.239 458.677 310.072 458.111 309.032 457.243C308.001 456.402 307.183 455.168 306.577 453.541C306 451.993 305.817 450.538 306.026 449.175C306.209 447.822 306.676 446.588 307.425 445.472C308.175 444.356 309.151 443.365 310.352 442.499C311.563 441.66 312.877 440.976 314.294 440.448C314.425 440.399 314.635 440.321 314.924 440.214C315.212 440.106 315.527 439.989 315.868 439.862C316.193 439.771 316.513 439.666 316.827 439.549C317.126 439.468 317.346 439.416 317.487 439.393L314.554 431.522ZM320.874 454.984C321.398 454.788 321.808 454.606 322.104 454.436C322.383 454.302 322.652 454.142 322.911 453.956L318.454 441.991C318.189 442 317.815 442.08 317.333 442.229C316.861 442.405 316.48 442.547 316.191 442.655C315.483 442.918 314.845 443.291 314.277 443.771C313.709 444.252 313.268 444.834 312.956 445.518C312.616 446.212 312.436 447.011 312.414 447.916C312.393 448.82 312.587 449.824 312.998 450.926C313.78 453.025 314.868 454.382 316.263 454.998C317.657 455.614 319.194 455.609 320.874 454.984Z" fill="white"/>
<path d="M308.097 461.235L295.47 464.045L295.123 462.488C295.897 461.713 296.848 461.085 297.974 460.605L294.461 444.821C294.163 443.482 293.763 442.395 293.261 441.56C292.76 440.725 292.158 440.085 291.457 439.638C290.761 439.22 289.99 438.975 289.142 438.906C288.268 438.842 287.325 438.923 286.313 439.148C285.411 439.349 284.619 439.655 283.936 440.065C283.231 440.508 282.67 441.078 282.251 441.774C281.805 442.476 281.535 443.324 281.441 444.321C281.347 445.317 281.452 446.498 281.757 447.865L285.179 463.238C285.838 463.235 286.536 463.28 287.274 463.374C287.985 463.474 288.593 463.626 289.097 463.829L289.444 465.387L279.276 467.65L278.93 466.092C279.343 465.628 279.825 465.219 280.378 464.867C280.931 464.514 281.479 464.206 282.022 463.941L278.591 448.526C277.812 445.028 278.148 442.156 279.599 439.912C281.028 437.7 283.424 436.22 286.786 435.472C290.448 434.657 293.459 434.847 295.82 436.042C298.18 437.238 299.762 439.64 300.565 443.248L304.124 459.236C304.689 459.196 305.293 459.205 305.937 459.263C306.587 459.348 307.191 459.486 307.75 459.677L308.097 461.235Z" fill="white"/>
<path d="M256.217 469.657L245.827 470.396L245.714 468.804C246.215 468.348 246.774 467.929 247.393 467.548C248.013 467.195 248.597 466.915 249.144 466.708L247.266 440.314L250.827 440.061L267.135 460.375L269.041 463.481L269.166 463.472L268.551 460.148L267.308 442.678C266.739 442.578 266.108 442.384 265.414 442.097C264.694 441.839 264.084 441.56 263.586 441.258L263.472 439.666L273.82 438.93L273.934 440.522C273.455 440.893 272.932 441.239 272.365 441.56C271.773 441.911 271.162 442.207 270.534 442.448L272.161 465.322C272.736 465.506 273.312 465.718 273.891 465.957C274.469 466.197 274.993 466.454 275.461 466.73L275.572 468.28L266.523 468.924L253.259 452.351L251.076 448.886L250.908 448.897L251.374 452.485L252.369 466.478C253.056 466.654 253.731 466.872 254.395 467.134C255.033 467.425 255.603 467.736 256.103 468.065L256.217 469.657Z" fill="white"/>
<path d="M234.324 440.257L244.669 441.031L244.55 442.622C244.083 442.868 243.59 443.07 243.073 443.228C242.526 443.412 241.997 443.54 241.486 443.615L228.658 469.82L225.559 469.588L217.068 441.787C216.518 441.634 215.972 441.424 215.43 441.159C214.886 440.922 214.416 440.648 214.018 440.337L214.137 438.746L227.246 439.727L227.127 441.319C226.578 441.53 225.987 441.725 225.356 441.902C224.725 442.079 224.127 442.203 223.56 442.273L225.491 449.114L234.789 449.81L237.758 443.336C236.486 443.072 235.302 442.576 234.205 441.848L234.324 440.257ZM233.58 452.457L226.166 451.902L228.29 460.106L228.816 463.767L228.9 463.773L230.097 460.157L233.58 452.457Z" fill="white"/>
<path d="M186.117 463.093L175.958 460.793L176.31 459.236C176.922 458.944 177.579 458.705 178.281 458.52C178.977 458.362 179.617 458.262 180.2 458.222L186.044 432.416L189.526 433.204L199.255 457.37L200.179 460.895L200.302 460.923L200.676 457.562L204.544 440.481C204.029 440.221 203.481 439.852 202.899 439.376C202.285 438.921 201.782 438.477 201.392 438.045L201.745 436.488L211.863 438.779L211.51 440.336C210.944 440.552 210.344 440.732 209.708 440.875C209.04 441.04 208.37 441.146 207.698 441.195L202.633 463.561C203.13 463.903 203.62 464.272 204.105 464.669C204.589 465.066 205.016 465.464 205.385 465.863L205.041 467.379L196.193 465.375L188.296 445.672L187.21 441.723L187.046 441.686L186.453 445.255L183.354 458.937C183.96 459.303 184.543 459.708 185.103 460.151C185.63 460.615 186.085 461.077 186.469 461.537L186.117 463.093Z" fill="white"/>
<path d="M137.331 412.439L148.66 417.857L147.972 419.297C147.346 419.308 146.75 419.287 146.186 419.234C145.621 419.182 145.031 419.086 144.415 418.946L136.84 434.784L134.531 439.126L134.834 439.271L138.023 435.815L154.306 420.557L156.049 421.391L154.426 443.474L153.67 448.559L154.011 448.722L156.274 443.892L163.704 428.358C163.272 428.027 162.821 427.609 162.348 427.104C161.876 426.599 161.454 426.086 161.081 425.567L161.77 424.127L171.015 428.549L170.327 429.988C169.826 429.997 169.218 430.002 168.505 430.002C167.765 429.99 167.106 429.907 166.528 429.755L156.362 451.011C156.819 451.353 157.295 451.752 157.792 452.207C158.263 452.649 158.647 453.112 158.943 453.595L158.255 455.035L147.986 450.124L149.565 431.931L150.205 427.768L150.168 427.75L147.255 430.919L134.005 443.438L124.609 438.944L125.297 437.504C125.847 437.457 126.423 437.453 127.025 437.492C127.59 437.545 128.149 437.642 128.702 437.782L138.977 416.299C138.495 415.944 138.062 415.551 137.679 415.119C137.27 414.676 136.925 414.262 136.643 413.879L137.331 412.439Z" fill="white"/>
<path d="M126.862 405.336L135.368 411.353L134.443 412.662C133.913 412.632 133.384 412.551 132.857 412.419C132.291 412.294 131.769 412.132 131.291 411.931L106.693 427.86L104.145 426.057L111.212 397.729C110.818 397.313 110.456 396.85 110.127 396.341C109.782 395.856 109.518 395.377 109.336 394.903L110.261 393.595L121.041 401.219L120.116 402.528C119.533 402.426 118.924 402.288 118.289 402.115C117.654 401.941 117.075 401.738 116.551 401.505L114.675 408.394L122.321 413.802L128.226 409.763C127.267 408.878 126.504 407.839 125.936 406.645L126.862 405.336ZM119.911 415.456L113.815 411.144L111.401 419.305L109.96 422.73L110.029 422.779L112.93 420.284L119.911 415.456Z" fill="white"/>
<path d="M99.7944 383.191L108.957 392.1L107.84 393.249C107.321 393.097 106.761 392.886 106.161 392.616C105.54 392.327 104.989 392.026 104.508 391.715L87.8672 408.831C88.2726 409.382 88.6187 409.953 88.9054 410.546C89.1922 411.138 89.3884 411.663 89.4943 412.118L88.3771 413.268L79.2144 404.359L80.3316 403.21C80.83 403.303 81.3491 403.454 81.8889 403.666C82.4086 403.857 82.8894 404.109 83.3312 404.421L90.446 397.103L82.4324 389.312L75.3176 396.63C75.6827 397.142 75.9683 397.654 76.1744 398.169C76.3603 398.663 76.5062 399.138 76.612 399.594L75.4948 400.743L66.3321 391.835L67.4493 390.686C68.0076 390.797 68.5772 390.998 69.1579 391.288C69.7386 391.578 70.2798 391.889 70.7816 392.22L87.422 375.104C87.0367 374.572 86.7108 374.02 86.4442 373.447C86.1575 372.855 85.9411 372.311 85.7949 371.816L86.9121 370.667L96.0748 379.575L94.9576 380.724C94.4788 380.612 93.9796 380.46 93.4599 380.268C92.9402 380.077 92.4396 379.825 91.958 379.514L84.3434 387.346L92.357 395.137L99.9716 387.305C99.6468 386.832 99.3816 386.359 99.1761 385.884C98.9706 385.41 98.8043 384.895 98.6772 384.34L99.7944 383.191Z" fill="white"/>
<path d="M79.9461 361.466L86.1705 369.765L84.8937 370.723C84.4009 370.533 83.9249 370.295 83.4657 370.009C82.9673 369.718 82.5221 369.404 82.1301 369.068L53.9565 376.653L52.0917 374.167L67.4385 349.479C67.1921 348.964 66.9905 348.415 66.8337 347.833C66.6545 347.267 66.5509 346.733 66.5229 346.229L67.7997 345.271L75.6873 355.788L74.4105 356.745C73.8897 356.471 73.3549 356.155 72.8061 355.796C72.2573 355.438 71.7701 355.068 71.3445 354.687L67.4637 360.643L73.0581 368.102L79.8873 366.078C79.2489 364.947 78.8429 363.729 78.6693 362.424L79.9461 361.466ZM70.2693 368.934L65.8089 362.987L61.0293 369.984L58.6185 372.789L58.6689 372.857L62.1801 371.378L70.2693 368.934Z" fill="white"/>
<path d="M62.3761 339.401C62.4913 338.981 62.532 338.458 62.4982 337.833C62.4401 337.222 62.1824 336.514 61.7252 335.711C60.9631 334.373 59.992 333.46 58.8119 332.972C57.5936 332.474 56.3641 332.578 55.1232 333.284C54.2229 333.797 53.6349 334.519 53.3591 335.449C53.0695 336.355 52.9187 337.391 52.9065 338.558C52.8944 339.725 52.929 340.946 53.0105 342.221C53.0676 343.509 53.005 344.786 52.8225 346.049C52.64 347.313 52.2528 348.501 51.6607 349.611C51.0305 350.711 50.0219 351.656 48.635 352.446C47.4428 353.125 46.284 353.495 45.1587 353.555C44.0333 353.616 42.9761 353.429 41.9869 352.993C40.9596 352.547 40.0142 351.877 39.1508 350.983C38.263 350.103 37.4727 349.055 36.7799 347.839C35.9347 346.354 35.2613 344.917 34.7598 343.527C34.2201 342.127 33.8783 340.791 33.7343 339.52C34.2348 339.267 34.8221 338.997 35.4963 338.71C36.1566 338.398 36.8308 338.111 37.5188 337.848C38.1825 337.599 38.8288 337.376 39.4577 337.179C40.0484 336.971 40.554 336.812 40.9744 336.702L41.8265 338.198L37.7825 342.724C37.8028 343.1 37.9184 343.614 38.1292 344.267C38.3263 344.896 38.598 345.514 38.9444 346.123C39.5263 347.145 40.2858 347.856 41.223 348.257C42.1601 348.658 43.1396 348.567 44.1615 347.985C45.0861 347.458 45.7106 346.716 46.035 345.758C46.3351 344.814 46.5033 343.751 46.5398 342.571C46.5763 341.39 46.5712 340.136 46.5246 338.809C46.4397 337.472 46.4885 336.172 46.671 334.908C46.8535 333.644 47.2407 332.457 47.8328 331.346C48.4005 330.25 49.3535 329.32 50.6917 328.558C53.1248 327.173 55.4816 326.926 57.762 327.818C60.0043 328.7 62.0329 330.735 63.8481 333.923C64.2914 334.701 64.6931 335.52 65.053 336.378C65.3991 337.212 65.6879 338.03 65.9194 338.833C66.1509 339.636 66.3286 340.372 66.4527 341.043C66.5628 341.689 66.5846 342.208 66.5181 342.6C65.9446 342.895 65.3138 343.173 64.6258 343.436C63.9134 343.713 63.2132 343.983 62.5252 344.246C61.799 344.498 61.1092 344.73 60.456 344.941C59.8028 345.152 59.2225 345.321 58.7153 345.449L57.8632 343.952L62.3761 339.401Z" fill="white"/>
<path d="M51.7832 310.676L57.1319 322.639L55.6749 323.29C54.6554 322.519 53.8219 321.65 53.1744 320.682L31.4728 330.385C31.6247 330.93 31.7241 331.53 31.771 332.184C31.818 332.837 31.8108 333.439 31.7494 333.988L30.2924 334.639L24.9438 322.676L26.4008 322.025C26.8877 322.359 27.3591 322.762 27.815 323.233C28.2339 323.69 28.596 324.156 28.9013 324.633L50.6029 314.93C50.4765 314.373 50.3828 313.787 50.3218 313.17C50.2493 312.527 50.2507 311.913 50.3262 311.327L51.7832 310.676Z" fill="white"/>
<path d="M45.7376 304.594C45.9319 304.204 46.0729 303.7 46.1607 303.08C46.2218 302.469 46.1058 301.725 45.8124 300.849C45.3235 299.388 44.5473 298.305 43.4839 297.598C42.385 296.873 41.1585 296.738 39.8044 297.191C38.8219 297.52 38.1055 298.114 37.6551 298.973C37.1957 299.806 36.8473 300.794 36.6097 301.937C36.3721 303.079 36.1701 304.284 36.0035 305.55C35.8104 306.825 35.5021 308.065 35.0786 309.27C34.6552 310.475 34.0457 311.565 33.2501 312.54C32.419 313.497 31.2468 314.229 29.7333 314.736C28.4323 315.171 27.2239 315.31 26.108 315.152C24.9921 314.994 23.9911 314.606 23.1048 313.987C22.1832 313.351 21.3852 312.511 20.7109 311.467C20.01 310.432 19.4374 309.251 18.9929 307.923C18.4507 306.303 18.0679 304.763 17.8446 303.303C17.5859 301.824 17.5088 300.448 17.6134 299.172C18.1533 299.021 18.7818 298.87 19.4988 298.718C20.2069 298.54 20.9239 298.389 21.6498 298.264C22.3492 298.148 23.0264 298.054 23.6816 297.982C24.3012 297.893 24.828 297.835 25.2618 297.808L25.8085 299.441L20.9655 303.099C20.9129 303.471 20.9269 303.998 21.0074 304.68C21.0791 305.335 21.2261 305.994 21.4483 306.658C21.8217 307.773 22.4293 308.618 23.2712 309.193C24.1131 309.767 25.0917 309.868 26.2068 309.494C27.2158 309.156 27.9721 308.549 28.4756 307.672C28.9526 306.803 29.3232 305.793 29.5873 304.642C29.8514 303.491 30.0889 302.259 30.2997 300.949C30.475 299.62 30.7744 298.354 31.1978 297.149C31.6213 295.944 32.2308 294.854 33.0264 293.879C33.7955 292.913 34.9102 292.186 36.3705 291.697C39.0257 290.808 41.3856 291.022 43.4504 292.338C45.4798 293.637 47.0767 296.026 48.2412 299.504C48.5256 300.354 48.7614 301.234 48.9486 302.146C49.1268 303.031 49.2519 303.89 49.3238 304.722C49.3958 305.555 49.4277 306.312 49.4198 306.993C49.4029 307.649 49.3239 308.162 49.1827 308.534C48.5631 308.712 47.8904 308.864 47.1645 308.989C46.4121 309.122 45.6729 309.252 44.947 309.377C44.1857 309.484 43.4642 309.578 42.7825 309.658C42.1008 309.739 41.4988 309.793 40.9764 309.82L40.4297 308.187L45.7376 304.594Z" fill="white"/>
<path d="M13.6073 260.146C13.5868 261.278 13.3376 262.497 12.8598 263.803L11.2774 264.011L9.89715 253.517L11.4795 253.309C11.847 253.741 12.1625 254.208 12.4262 254.71C12.6899 255.211 12.9102 255.705 13.087 256.19L40.4154 260.094L41.4847 264.359L22.1792 273.464L42.661 277.167L43.7358 281.473L17.9452 293.126C17.9108 293.723 17.8293 294.285 17.7007 294.81C17.5443 295.339 17.3566 295.844 17.1374 296.325L15.555 296.533L13.7804 283.041L15.3628 282.833C15.6747 283.272 15.9819 283.782 16.2843 284.364C16.5553 284.921 16.8022 285.51 17.025 286.13L31.215 280.324L36.5134 278.738L36.5024 278.654L30.6891 277.936L12.6795 274.671L12.3564 272.214L28.6516 264.055L33.8787 261.928L33.8678 261.844L28.2451 261.61L13.6073 260.146Z" fill="white"/>
<path d="M40.271 246.392L40.2845 256.768L38.6882 256.77C38.4076 256.322 38.1689 255.846 37.9722 255.343C37.7475 254.811 37.5788 254.293 37.4661 253.789L10.3566 242.986L10.3525 239.877L37.4342 229.298C37.5455 228.738 37.7128 228.177 37.9361 227.617C38.1314 227.057 38.3688 226.566 38.6483 226.146L40.2446 226.144L40.2618 239.292L38.6654 239.294C38.4127 238.763 38.1739 238.189 37.9491 237.573C37.7242 236.957 37.5554 236.369 37.4427 235.809L30.7665 238.254L30.7787 247.58L37.4612 250.05C37.6276 248.762 38.0321 247.543 38.6747 246.394L40.271 246.392ZM28.0468 246.576L28.0371 239.14L20.0171 241.881L16.4054 242.684L16.4055 242.768L20.1034 243.687L28.0468 246.576Z" fill="white"/>
<path d="M44.1986 202.181L42.3386 215.152L40.7588 214.926C40.308 213.729 40.0671 212.549 40.036 211.385L16.5047 208.011C16.342 208.553 16.1061 209.114 15.797 209.691C15.4878 210.269 15.1609 210.774 14.8161 211.206L13.2363 210.979L15.0963 198.008L16.6761 198.234C16.9094 198.777 17.0933 199.369 17.2276 200.011C17.3381 200.62 17.3952 201.208 17.3989 201.775L40.9302 205.149C41.1206 204.61 41.3545 204.064 41.632 203.51C41.9134 202.928 42.2423 202.409 42.6188 201.954L44.1986 202.181Z" fill="white"/>
<path d="M21.4444 172.794L24.0484 162.691L25.5965 163.09C25.8709 163.711 26.0906 164.375 26.2555 165.084C26.3933 165.786 26.4736 166.429 26.4966 167.014L52.1628 173.629L51.2703 177.092L26.7864 186.119L23.2294 186.94L23.1979 187.062L26.5516 187.535L43.5402 191.914C43.816 191.406 44.2008 190.868 44.6948 190.3C45.1685 189.698 45.6279 189.208 46.0728 188.83L47.6209 189.229L45.0274 199.292L43.4793 198.893C43.2794 198.32 43.1171 197.713 42.9925 197.073C42.8477 196.399 42.7608 195.724 42.7317 195.051L20.4876 189.318C20.1304 189.805 19.7459 190.285 19.3343 190.758C18.9227 191.232 18.5115 191.647 18.1008 192.004L16.5934 191.616L18.8614 182.816L38.8227 175.492L42.8094 174.521L42.8514 174.358L39.2952 173.658L25.6881 170.151C25.3028 170.747 24.8803 171.319 24.4205 171.867C23.9406 172.38 23.4646 172.822 22.9925 173.193L21.4444 172.794Z" fill="white"/>
<path d="M53.6627 161.509C54.3125 160.384 55.1553 159.415 56.1908 158.603L57.6644 159.216L52.6791 171.198L51.2055 170.585C51.145 170.075 51.121 169.549 51.1337 169.008C51.1204 168.457 51.1568 167.896 51.2426 167.325L29.2945 158.194C28.9178 158.734 28.5293 159.194 28.1289 159.574C27.7392 159.927 27.3657 160.242 27.0083 160.518L25.5347 159.905L33.9726 139.624C34.4897 139.839 35.0477 140.101 35.6466 140.411C36.2197 140.71 36.8132 141.033 37.4272 141.38C38.0262 141.689 38.6144 142.025 39.1918 142.387C39.7541 142.712 40.2723 143.033 40.7463 143.352L40.0848 144.942L34.7669 144.822L31.637 152.345L41.8355 156.588L44.0458 151.275L41.7859 148.288L42.2699 147.125C42.9851 147.301 43.7229 147.532 44.4834 147.818C45.2546 148.078 46.015 148.364 46.7647 148.676C47.5295 149.025 48.2631 149.375 48.9654 149.728C49.6785 150.055 50.3033 150.376 50.8398 150.69L50.3558 151.853L46.5663 152.324L44.356 157.636L53.6627 161.509Z" fill="white"/>
<path d="M48.646 145.341C46.7694 144.223 45.1948 142.927 43.9221 141.453C42.6253 139.964 41.7075 138.358 41.1687 136.636C40.6058 134.9 40.4507 133.08 40.7036 131.178C40.9565 129.275 41.6702 127.338 42.8449 125.365C44.0195 123.392 45.3828 121.841 46.9348 120.712C48.4868 119.583 50.1531 118.865 51.9336 118.556C53.7044 118.209 55.5533 118.251 57.4803 118.681C59.3833 119.098 61.2731 119.864 63.1496 120.982C65.0262 122.099 66.6129 123.402 67.9096 124.891C69.1823 126.366 70.1002 127.971 70.6631 129.708C71.2162 131.406 71.3664 133.206 71.1135 135.109C70.8606 137.011 70.1469 138.949 68.9723 140.921C67.7976 142.894 66.4343 144.445 64.8823 145.574C63.3303 146.703 61.6689 147.441 59.8981 147.788C58.1033 148.12 56.2544 148.079 54.3514 147.662C52.4243 147.232 50.5225 146.458 48.646 145.341ZM52.2988 139.206C53.8385 140.123 55.3416 140.855 56.808 141.402C58.2504 141.935 59.6032 142.235 60.8664 142.303C62.1198 142.332 63.2595 142.115 64.2856 141.65C65.3019 141.148 66.1467 140.331 66.82 139.2C67.4359 138.165 67.6941 137.13 67.5946 136.093C67.471 135.042 67.0761 134.008 66.41 132.992C65.7198 131.962 64.7825 130.964 63.5979 129.998C62.4036 128.994 61.0366 128.033 59.4969 127.117C57.9571 126.2 56.4661 125.475 55.0237 124.942C53.5715 124.371 52.2259 124.058 50.9868 124.005C49.738 123.913 48.6054 124.119 47.5891 124.621C46.5631 125.086 45.7062 125.895 45.0187 127.05C44.3597 128.157 44.0849 129.248 44.1942 130.323C44.2794 131.384 44.6671 132.43 45.3573 133.46C46.0377 134.451 46.9822 135.437 48.1908 136.418C49.3897 137.36 50.759 138.289 52.2988 139.206Z" fill="white"/>
<path d="M79.0406 119.385C79.5586 118.977 80.0643 118.651 80.5579 118.405C81.0515 118.158 81.5362 117.923 82.012 117.699L83.2428 118.715L75.0075 128.691L73.7767 127.675C73.9097 126.986 74.0897 126.372 74.3167 125.833C74.522 125.276 74.7598 124.746 75.0299 124.243L56.6974 109.11C55.5686 109.993 54.5247 110.62 53.5656 110.99L52.3348 109.974L55.169 106.541C55.5255 106.109 55.9158 105.614 56.3398 105.057C56.7817 104.477 57.2414 103.877 57.7189 103.254C58.1748 102.614 58.6505 101.972 59.1458 101.328C59.6196 100.666 60.0971 100.043 60.5783 99.4604C61.5587 98.2728 62.5993 97.2982 63.6999 96.5366C64.7968 95.7357 65.9093 95.2017 67.0374 94.9348C68.1833 94.6462 69.3269 94.6463 70.4683 94.935C71.6059 95.1843 72.7146 95.7545 73.7942 96.6458C75.3489 97.9292 76.311 99.3588 76.6804 100.935C77.0498 102.51 76.9391 104.162 76.3484 105.889C78.4218 106.148 80.5721 106.38 82.7994 106.585C85.0051 106.772 87.2121 106.869 89.4206 106.877L91.7405 106.178L92.8417 107.087L88.3765 112.496L86.1579 113.006C84.1503 113.019 82.0483 112.773 79.8519 112.267C77.6517 111.721 75.5552 111.116 73.5624 110.451L71.3967 113.075L79.0406 119.385ZM61.7211 102.364C61.1685 103.034 60.7877 103.627 60.5785 104.144L69.6152 111.604L71.1928 109.693C72.1019 108.592 72.4886 107.332 72.3529 105.913C72.1957 104.476 71.3397 103.116 69.7851 101.832C68.9861 101.173 68.2168 100.719 67.4771 100.472C66.7159 100.206 65.9913 100.116 65.3033 100.202C64.6154 100.288 63.9711 100.518 63.3706 100.894C62.77 101.27 62.2202 101.76 61.7211 102.364Z" fill="white"/>
<path d="M123.412 79.7846L113.897 87.9803L112.855 86.7711C113.097 86.1934 113.355 85.6568 113.63 85.1611C113.905 84.6654 114.231 84.1635 114.606 83.6554L103.148 70.3536L100.101 66.4933L99.846 66.7126L101.729 71.0221L109.155 92.0645L107.691 93.3253L88.1229 82.9633L83.7703 80.2268L83.4839 80.4735L86.9968 84.4876L98.235 97.5348C98.7112 97.2724 99.2755 97.0266 99.9279 96.7972C100.58 96.5679 101.219 96.3872 101.845 96.255L102.886 97.4643L95.1214 104.152L94.0798 102.943C94.2731 102.481 94.5132 101.923 94.8001 101.27C95.1082 100.598 95.4485 100.027 95.8209 99.5587L80.4437 81.7063C79.9463 81.9869 79.3897 82.2631 78.7739 82.5349C78.1792 82.7884 77.6011 82.9538 77.0394 83.0311L75.9978 81.8218L84.6217 74.3936L100.647 83.1516L104.201 85.4117L104.233 85.3843L102.501 81.4434L96.3642 64.2792L104.256 57.4814L105.298 58.6907C105.12 59.2135 104.892 59.7425 104.614 60.2777C104.339 60.7734 104.025 61.2464 103.674 61.6967L119.216 79.7401C119.734 79.4412 120.268 79.203 120.818 79.0256C121.388 78.8298 121.906 78.6797 122.37 78.5754L123.412 79.7846Z" fill="white"/>
<path d="M133.473 72.6483L124.58 77.9898L123.758 76.6216C123.998 76.1509 124.283 75.7018 124.614 75.2743C124.955 74.8083 125.313 74.3976 125.687 74.0421L121.028 45.2396L123.692 43.6394L146.678 61.4345C147.216 61.2422 147.782 61.0979 148.378 61.0016C148.959 60.8812 149.501 60.833 150.005 60.8568L150.827 62.2249L139.558 68.9937L138.736 67.6255C139.062 67.1355 139.432 66.636 139.845 66.1268C140.257 65.6176 140.675 65.1708 141.097 64.7864L135.571 60.3159L127.577 65.1168L128.892 72.1174C130.082 71.5983 131.335 71.3192 132.651 71.2802L133.473 72.6483ZM127.036 62.2574L133.409 58.4298L126.938 52.9585L124.394 50.273L124.322 50.3162L125.433 53.9604L127.036 62.2574Z" fill="white"/>
<path d="M166.276 54.8649L153.045 60.6699L152.404 59.2084C152.827 58.7783 153.314 58.32 153.865 57.8337C154.43 57.3104 155.024 56.8512 155.646 56.4562L146.06 34.6104L141.599 36.568L142.023 44.2248L140.446 44.9166C140.119 44.4488 139.729 43.84 139.278 43.0901C138.827 42.3403 138.377 41.5592 137.929 40.7468C137.481 39.9344 137.051 39.1292 136.64 38.3312C136.217 37.5076 135.876 36.8009 135.618 36.2111L160.117 25.4617C160.387 26.0771 160.676 26.8063 160.985 27.6493C161.294 28.4923 161.595 29.3537 161.89 30.2336C162.184 31.1135 162.454 31.9733 162.701 32.8132C162.936 33.6274 163.12 34.3263 163.254 34.9097L161.638 35.6185L156.291 30.1217L151.83 32.0792L161.415 53.9249C162.138 53.7606 162.859 53.6276 163.579 53.5258C164.324 53.4128 165.009 53.372 165.635 53.4034L166.276 54.8649Z" fill="white"/>
<path d="M185.024 48.6671L172.436 52.308L171.992 50.7749C172.897 49.872 173.874 49.1669 174.922 48.6596L168.317 25.8236C167.756 25.8985 167.148 25.914 166.494 25.87C165.84 25.8259 165.246 25.7356 164.71 25.5988L164.267 24.0657L176.855 20.4247L177.298 21.9579C176.9 22.3938 176.436 22.8049 175.906 23.1913C175.396 23.5429 174.883 23.8369 174.369 24.0732L180.974 46.9091C181.543 46.8611 182.137 46.8496 182.756 46.8745C183.403 46.8916 184.011 46.9781 184.58 47.1339L185.024 48.6671Z" fill="white"/>
<path d="M197.836 15.6881L208.831 13.2759L209.173 14.8348C208.774 15.2377 208.297 15.6145 207.744 15.9653C207.184 16.2888 206.667 16.5455 206.193 16.7356L200.567 28.3325C201.388 29.0697 202.346 29.9059 203.44 30.8413C204.527 31.7492 205.682 32.6999 206.903 33.6933C208.118 34.6593 209.367 35.6466 210.649 36.6554C211.925 37.6367 213.161 38.5694 214.359 39.4534L216.589 40.211L216.895 41.6059L209.757 43.172L207.864 42.3833C207.027 41.7068 206.132 40.9573 205.177 40.1347C204.244 39.2788 203.305 38.3955 202.36 37.4849C201.409 36.5469 200.472 35.606 199.548 34.662C198.624 33.718 197.747 32.7924 196.918 31.8851L195.154 32.2722L197.503 42.9795C198.128 42.9569 198.711 43.001 199.252 43.1118C199.792 43.2226 200.267 43.362 200.677 43.5302L201.019 45.0891L188.588 47.8162L188.246 46.2573C188.733 45.8638 189.243 45.5083 189.775 45.1909C190.302 44.8461 190.826 44.559 191.349 44.3296L186.255 21.1098C185.608 21.1658 184.959 21.1504 184.31 21.0636C183.687 20.9708 183.127 20.8357 182.63 20.6582L182.288 19.0993L194.718 16.3721L195.06 17.931C194.753 18.2278 194.363 18.5426 193.891 18.8754C193.447 19.2022 192.953 19.497 192.408 19.7598L194.695 30.1799L196.989 29.0746L201.434 17.7796C200.863 17.7902 200.28 17.7462 199.685 17.6474C199.111 17.5152 198.609 17.3818 198.178 17.247L197.836 15.6881Z" fill="white"/>
<path d="M228.833 40.6881L218.478 41.3138L218.382 39.7207C218.812 39.4142 219.273 39.1479 219.764 38.9219C220.282 38.6662 220.789 38.4673 221.285 38.3251L230.467 10.6308L233.57 10.4433L245.727 36.8481C246.292 36.9262 246.861 37.0601 247.434 37.2499C248.005 37.4118 248.508 37.6198 248.944 37.8739L249.041 39.467L235.919 40.26L235.822 38.6669C236.338 38.3832 236.897 38.111 237.498 37.8503C238.099 37.5895 238.676 37.3864 239.228 37.2408L236.394 30.7219L227.087 31.2843L225.016 38.0996C226.312 38.1896 227.552 38.5214 228.737 39.095L228.833 40.6881ZM227.929 28.4985L235.349 28.0501L232.14 20.2073L231.126 16.6501L231.042 16.6551L230.342 20.4001L227.929 28.4985Z" fill="white"/>
<path d="M261.263 12.5052L274.109 14.1653L273.904 15.7502C272.911 16.2155 271.802 16.4821 270.578 16.5501L268.503 32.6076C268.327 33.97 268.332 35.1298 268.519 36.0869C268.707 37.044 269.055 37.8522 269.563 38.5116C270.075 39.1431 270.718 39.6361 271.492 39.9906C272.294 40.3486 273.209 40.5941 274.238 40.7271C275.156 40.8456 276.006 40.8283 276.789 40.6751C277.604 40.4976 278.327 40.1529 278.958 39.6409C279.617 39.1324 280.161 38.4252 280.589 37.5194C281.017 36.6135 281.321 35.4655 281.501 34.0752L283.522 18.4348C282.9 18.2132 282.258 17.9323 281.595 17.5922C280.96 17.2557 280.44 16.9058 280.035 16.5425L280.24 14.9576L290.583 16.2942L290.378 17.8791C289.831 18.1759 289.237 18.396 288.597 18.5394C287.956 18.6828 287.335 18.7863 286.733 18.8498L284.707 34.532C284.247 38.091 282.951 40.6799 280.82 42.2985C278.72 43.8929 275.96 44.4691 272.54 44.0271C268.814 43.5456 266.044 42.3396 264.229 40.409C262.415 38.4784 261.745 35.6779 262.22 32.0076L264.322 15.7416C263.776 15.5863 263.21 15.3719 262.624 15.0982C262.041 14.7967 261.519 14.4607 261.058 14.0901L261.263 12.5052Z" fill="white"/>
<path d="M311.73 22.5937L321.752 25.4295L321.318 26.9652C320.692 27.2245 320.023 27.4281 319.312 27.5761C318.608 27.6972 317.964 27.7623 317.38 27.7715L310.176 53.232L306.741 52.26L298.306 27.6128L297.57 24.0436L297.449 24.0093L296.898 27.3452L292.13 44.1977C292.631 44.4849 293.159 44.8816 293.714 45.3878C294.303 45.8748 294.782 46.3447 295.148 46.7976L294.714 48.3333L284.731 45.509L285.166 43.9733C285.742 43.7872 286.352 43.6395 286.994 43.5301C287.67 43.4015 288.345 43.3305 289.018 43.3172L295.261 21.2514C294.783 20.8834 294.313 20.4885 293.851 20.0666C293.388 19.6447 292.983 19.2246 292.636 18.8063L293.059 17.311L301.788 19.7808L308.63 39.8746L309.506 43.8761L309.667 43.9219L310.449 40.3891L314.268 26.891C313.682 26.4925 313.122 26.0574 312.586 25.5857C312.084 25.0947 311.654 24.6093 311.295 24.1294L311.73 22.5937Z" fill="white"/>
<path d="M319.304 53.5278C319.473 53.9304 319.763 54.3679 320.177 54.8403C320.6 55.2867 321.241 55.6853 322.098 56.0362C323.526 56.6211 324.857 56.7413 326.089 56.3969C327.358 56.0372 328.264 55.1951 328.807 53.8706C329.2 52.9097 329.218 51.9771 328.861 51.0726C328.529 50.1788 328.008 49.2678 327.296 48.3396C326.584 47.4114 325.802 46.4696 324.95 45.5143C324.109 44.5329 323.369 43.4872 322.732 42.3773C322.095 41.2673 321.667 40.0913 321.448 38.8492C321.265 37.5918 321.477 36.2229 322.083 34.7426C322.604 33.4701 323.29 32.462 324.14 31.7185C324.99 30.975 325.94 30.4694 326.99 30.2017C328.076 29.9187 329.236 29.8629 330.47 30.0345C331.714 30.1801 332.985 30.5187 334.284 31.0504C335.868 31.699 337.288 32.4167 338.542 33.2034C339.834 33.9747 340.929 34.8174 341.828 35.7315C341.59 36.2402 341.293 36.8163 340.939 37.4596C340.61 38.1136 340.256 38.7569 339.876 39.3896C339.506 39.9963 339.134 40.5718 338.759 41.1159C338.422 41.6447 338.121 42.0827 337.858 42.4297L336.261 41.7757L336.654 35.7051C336.406 35.4217 335.997 35.0874 335.427 34.7024C334.883 34.328 334.286 34.0078 333.637 33.742C332.546 33.2954 331.507 33.2036 330.52 33.4666C329.533 33.7296 328.816 34.4064 328.369 35.4972C327.965 36.484 327.931 37.4557 328.268 38.4121C328.614 39.3425 329.138 40.2848 329.839 41.239C330.54 42.1931 331.319 43.1792 332.176 44.1971C333.069 45.1997 333.835 46.256 334.472 47.366C335.109 48.476 335.537 49.652 335.757 50.8941C335.986 52.1102 335.809 53.4324 335.224 54.8608C334.161 57.4578 332.454 59.109 330.103 59.8143C327.789 60.5042 324.93 60.1527 321.528 58.7597C320.697 58.4195 319.875 58.0219 319.06 57.5672C318.272 57.123 317.538 56.6559 316.859 56.1657C316.181 55.6755 315.585 55.2043 315.073 54.7519C314.586 54.3103 314.248 53.9141 314.058 53.5634C314.329 52.9767 314.654 52.367 315.035 51.7343C315.426 51.0756 315.811 50.4299 316.192 49.7972C316.609 49.1492 317.01 48.5401 317.395 47.97C317.78 47.3999 318.133 46.9077 318.454 46.4934L320.051 47.1473L319.304 53.5278Z" fill="white"/>
<path d="M345.079 70.5166L333.81 63.8336L334.624 62.461C335.901 62.5025 337.084 62.7316 338.171 63.1486L350.295 42.7046C349.856 42.3468 349.429 41.9145 349.013 41.4077C348.598 40.9009 348.257 40.4057 347.99 39.9221L348.804 38.5496L360.073 45.2326L359.259 46.6052C358.669 46.613 358.052 46.5562 357.408 46.4347C356.802 46.3033 356.237 46.131 355.713 45.9176L343.589 66.3616C344.013 66.7435 344.428 67.1687 344.834 67.6371C345.264 68.1198 345.617 68.6221 345.893 69.1441L345.079 70.5166Z" fill="white"/>
<path d="M377.731 58.0067L386.736 64.8729L385.763 66.1497C385.194 66.1057 384.595 65.9855 383.966 65.7889C383.353 65.57 382.82 65.3404 382.365 65.1001L369.807 68.3299C369.776 69.4396 369.757 70.7183 369.751 72.1662C369.762 73.5917 369.784 75.0961 369.817 76.6795C369.866 78.2405 369.921 79.841 369.981 81.481C370.058 83.0985 370.148 84.6542 370.248 86.148L371.118 88.3522L370.247 89.4946L364.401 85.0367L363.774 83.0711C363.749 81.9892 363.741 80.8144 363.751 79.5469C363.801 78.274 363.868 76.9787 363.951 75.661C364.052 74.3209 364.164 72.9894 364.287 71.6664C364.41 70.3434 364.55 69.0684 364.706 67.8415L363.262 66.7398L356.575 75.5094C356.999 75.9748 357.345 76.4508 357.611 76.9374C357.878 77.424 358.08 77.8792 358.217 78.3028L357.244 79.5796L347.063 71.8168L348.037 70.54C348.655 70.6576 349.26 70.8173 349.85 71.0192C350.457 71.1987 351.018 71.4144 351.535 71.6664L366.036 52.6488C365.572 52.1888 365.162 51.6813 364.806 51.1263C364.472 50.5884 364.211 50.0708 364.023 49.5736L364.997 48.2968L375.178 56.0596L374.204 57.3364C373.776 57.2936 373.281 57.1995 372.719 57.0542C372.179 56.9259 371.632 56.7385 371.076 56.4918L364.568 65.0262L366.909 66.0674L378.468 62.1282C378.088 61.697 377.743 61.221 377.431 60.7002C377.159 60.1741 376.935 59.7019 376.758 59.2835L377.731 58.0067Z" fill="white"/>
<path d="M380.373 98.9971L373.179 91.5221L374.329 90.4154C374.842 90.5441 375.343 90.722 375.834 90.9493C376.364 91.1773 376.845 91.4341 377.275 91.7196L404.308 80.7432L406.463 82.9827L394.253 109.363C394.561 109.844 394.828 110.364 395.055 110.923C395.302 111.462 395.47 111.98 395.56 112.477L394.41 113.584L385.294 104.112L386.444 103.005C386.995 103.213 387.564 103.462 388.153 103.751C388.742 104.039 389.27 104.346 389.739 104.672L392.862 98.2864L386.397 91.568L379.867 94.413C380.639 95.4575 381.191 96.6167 381.523 97.8904L380.373 98.9971ZM389.063 90.4013L394.218 95.7579L398.105 88.2283L400.154 85.1487L400.096 85.0882L396.792 86.9852L389.063 90.4013Z" fill="white"/>
<path d="M453.23 142.295H396.08C395.661 142.295 395.32 142.636 395.32 143.055V351.055C395.32 351.475 395.661 351.815 396.08 351.815H453.23C453.65 351.815 453.99 351.475 453.99 351.055V143.055C453.99 142.636 453.65 142.295 453.23 142.295Z" fill="#FEF157" stroke="#020202" stroke-width="4" stroke-miterlimit="10"/>
<path d="M512.66 207.065V214.065H577.77C577.945 214.064 578.119 214.098 578.281 214.164C578.443 214.23 578.59 214.328 578.714 214.452C578.837 214.576 578.935 214.723 579.002 214.885C579.068 215.047 579.102 215.22 579.1 215.395V274.825C579.1 275.178 578.96 275.516 578.711 275.766C578.461 276.015 578.123 276.155 577.77 276.155H512.66V351.035C512.66 351.237 512.58 351.43 512.438 351.573C512.295 351.715 512.102 351.795 511.9 351.795H454.75C454.549 351.795 454.355 351.715 454.213 351.573C454.07 351.43 453.99 351.237 453.99 351.035V143.035C453.99 142.833 454.07 142.639 454.212 142.494C454.354 142.35 454.548 142.268 454.75 142.265H577.75C577.926 142.265 578.099 142.3 578.261 142.368C578.423 142.435 578.571 142.534 578.694 142.658C578.818 142.783 578.916 142.931 578.982 143.093C579.048 143.256 579.082 143.43 579.08 143.605V205.695C579.082 205.871 579.048 206.045 578.982 206.207C578.916 206.37 578.818 206.518 578.694 206.642C578.571 206.767 578.423 206.866 578.261 206.933C578.099 207.001 577.926 207.035 577.75 207.035L512.66 207.065Z" fill="#FEF157" stroke="#020202" stroke-width="4" stroke-miterlimit="10"/>
<defs>
<clipPath id="clip0_793_571">
<rect x="58.3203" y="58.2654" width="364.52" height="364.52" rx="182.26" fill="white"/>
</clipPath>
</defs>
</svg>
