<svg width="367" height="605" viewBox="0 0 367 605" fill="none" xmlns="http://www.w3.org/2000/svg">
<path d="M-103.444 176.297C-24.9313 152.79 51.1113 148.172 110.577 159.685C170.07 171.204 212.829 198.83 225.061 239.685C237.293 280.539 216.751 327.118 173.377 369.435C130.023 411.733 63.9539 449.664 -14.5583 473.171C-93.0705 496.678 -169.113 501.296 -228.579 489.782C-288.071 478.264 -330.831 450.637 -343.063 409.783C-355.295 368.929 -334.753 322.35 -291.379 280.033C-248.025 237.735 -181.956 199.804 -103.444 176.297Z" stroke="#D6C26A"/>
<path d="M-106.338 166.627C-24.8051 142.216 54.2956 137.861 116.265 150.53C178.256 163.203 222.972 192.877 236.006 236.408C249.039 279.938 227.988 329.304 183.16 373.96C138.35 418.599 69.8703 458.429 -11.6621 482.84C-93.1945 507.251 -172.295 511.607 -234.264 498.938C-296.256 486.265 -340.972 456.59 -354.005 413.059C-367.039 369.529 -345.987 320.164 -301.16 275.508C-256.349 230.869 -187.87 191.038 -106.338 166.627Z" stroke="#D6C26A"/>
<path d="M-109.233 156.957C-24.6805 131.642 57.479 127.549 121.951 141.374C186.443 155.203 233.114 186.925 246.949 233.131C260.783 279.338 239.224 331.488 192.942 378.483C146.676 425.464 75.7856 467.195 -8.7674 492.511C-93.3204 517.826 -175.48 521.919 -239.952 508.094C-304.444 494.265 -351.115 462.543 -364.95 416.336C-378.784 370.13 -357.224 317.98 -310.943 270.985C-264.677 224.004 -193.786 182.273 -109.233 156.957Z" stroke="#D6C26A"/>
<path d="M-112.129 147.288C-24.5552 121.068 60.6628 117.238 127.638 132.219C194.631 147.203 243.257 180.973 257.893 229.855C272.528 278.737 250.461 333.673 202.725 383.007C155.002 432.329 81.7012 475.96 -5.87232 502.18C-93.4458 528.4 -178.664 532.23 -245.639 517.249C-312.632 502.265 -361.258 468.495 -375.894 419.614C-390.529 370.732 -368.462 315.795 -320.726 266.461C-273.003 217.139 -199.702 173.508 -112.129 147.288Z" stroke="#D6C26A"/>
<path d="M-115.024 137.618C-24.4302 110.494 63.8462 106.927 133.325 123.063C202.819 139.203 253.4 175.022 268.836 226.579C284.272 278.135 261.698 335.856 212.508 387.531C163.328 439.194 87.6167 484.726 -2.97739 511.851C-93.5714 538.975 -181.848 542.541 -251.327 526.405C-320.821 510.265 -371.401 474.447 -386.838 422.89C-402.274 371.333 -379.7 313.612 -330.509 261.937C-281.33 210.274 -205.618 164.742 -115.024 137.618Z" stroke="#D6C26A"/>
<path d="M-117.919 127.948C-24.3044 99.9194 67.0305 96.6158 139.012 113.908C211.008 131.204 263.543 169.07 279.78 223.302C296.017 277.533 272.936 338.039 222.291 392.054C171.655 446.059 93.5328 493.491 -0.0819426 521.52C-93.6967 549.549 -185.032 552.852 -257.013 535.56C-329.01 518.264 -381.544 480.398 -397.781 426.166C-414.018 371.935 -390.937 311.429 -340.292 257.414C-289.656 203.409 -211.534 155.977 -117.919 127.948Z" stroke="#D6C26A"/>
<path d="M-120.815 118.278C-24.1797 89.345 70.2142 86.3037 144.7 104.752C219.198 123.203 273.685 163.119 290.723 220.025C307.761 276.93 284.174 340.222 232.073 396.578C179.982 452.924 99.4481 502.257 2.81259 531.19C-93.8229 560.123 -188.217 563.164 -262.702 544.716C-337.2 526.264 -391.688 486.348 -408.726 429.443C-425.764 372.537 -402.177 309.245 -350.076 252.89C-297.985 196.544 -217.451 147.211 -120.815 118.278Z" stroke="#D6C26A"/>
<path d="M-123.709 108.608C-24.0528 78.7706 73.4 75.9924 150.389 95.5968C227.389 115.204 283.83 157.169 301.669 216.749C319.507 276.328 295.414 342.405 241.858 401.101C188.31 459.788 105.365 511.022 5.70886 540.86C-93.9474 570.697 -191.4 573.475 -268.389 553.871C-345.389 534.264 -401.83 492.299 -419.668 432.72C-437.507 373.141 -413.414 307.063 -359.859 248.367C-306.31 189.679 -223.365 138.446 -123.709 108.608Z" stroke="#D6C26A"/>
</svg>
